                <svg
                  width="32"
                  height="32"
                  viewBox="0 0 32 32"
                  fill="none"
                  xmlns="http://www.w3.org/2000/svg"
                >
                  <path
                    d="M26 16C26 15.7348 26.1054 15.4804 26.2929 15.2929C26.4804 15.1054 26.7348 15 27 15C27.2652 15 27.5196 15.1054 27.7071 15.2929C27.8946 15.4804 28 15.7348 28 16V27C28 27.2652 27.8946 27.5196 27.7071 27.7071C27.5196 27.8946 27.2652 28 27 28H5C4.73478 28 4.48043 27.8946 4.29289 27.7071C4.10536 27.5196 4 27.2652 4 27V5C4 4.73478 4.10536 4.48043 4.29289 4.29289C4.48043 4.10536 4.73478 4 5 4H16C16.2652 4 16.5196 4.10536 16.7071 4.29289C16.8946 4.48043 17 4.73478 17 5C17 5.26522 16.8946 5.51957 16.7071 5.70711C16.5196 5.89464 16.2652 6 16 6H6V26H26V16Z"
                    fill="white"
                  />
                  <path
                    d="M14.686 17.32L16.336 17.084L26.472 6.95001C26.5675 6.85776 26.6437 6.74742 26.6961 6.62542C26.7485 6.50341 26.7761 6.37219 26.7773 6.23941C26.7784 6.10663 26.7531 5.97495 26.7029 5.85206C26.6526 5.72916 26.5783 5.61751 26.4844 5.52362C26.3905 5.42972 26.2789 5.35547 26.156 5.30519C26.0331 5.25491 25.9014 5.22961 25.7686 5.23076C25.6358 5.23192 25.5046 5.2595 25.3826 5.31191C25.2606 5.36432 25.1503 5.4405 25.058 5.53601L14.92 15.67L14.684 17.32H14.686ZM27.886 4.12001C28.1648 4.39861 28.386 4.72942 28.5368 5.09352C28.6877 5.45762 28.7654 5.84788 28.7654 6.24201C28.7654 6.63614 28.6877 7.0264 28.5368 7.39051C28.386 7.75461 28.1648 8.08541 27.886 8.36401L17.516 18.734C17.3631 18.8875 17.1645 18.9872 16.95 19.018L13.65 19.49C13.4962 19.5121 13.3394 19.498 13.192 19.449C13.0446 19.3999 12.9106 19.3171 12.8008 19.2073C12.6909 19.0974 12.6082 18.9635 12.5591 18.816C12.51 18.6686 12.4959 18.5118 12.518 18.358L12.99 15.058C13.0203 14.8438 13.1193 14.6452 13.272 14.492L23.644 4.12201C24.2066 3.5596 24.9695 3.24365 25.765 3.24365C26.5605 3.24365 27.3234 3.5596 27.886 4.12201V4.12001Z"
                    fill="white"
                  />
                </svg>