<svg
    width="32"
    height="32"
    viewBox="0 0 32 32"
    fill="none"
    xmlns="http://www.w3.org/2000/svg"
  >
    <path
    d="M5 7.99999H3C2.73478 7.99999 2.48043 7.89463 2.29289 7.70709C2.10536 7.51956 2 7.2652 2 6.99999C2 6.73477 2.10536 6.48042 2.29289 6.29288C2.48043 6.10534 2.73478 5.99999 3 5.99999H11V2.99799C11 2.73277 11.1054 2.47842 11.2929 2.29088C11.4804 2.10334 11.7348 1.99799 12 1.99799H20C20.2652 1.99799 20.5196 2.10334 20.7071 2.29088C20.8946 2.47842 21 2.73277 21 2.99799V5.99999H29C29.2652 5.99999 29.5196 6.10534 29.7071 6.29288C29.8946 6.48042 30 6.73477 30 6.99999C30 7.2652 29.8946 7.51956 29.7071 7.70709C29.5196 7.89463 29.2652 7.99999 29 7.99999H27V29C27 29.2652 26.8946 29.5196 26.7071 29.7071C26.5196 29.8946 26.2652 30 26 30H6C5.73478 30 5.48043 29.8946 5.29289 29.7071C5.10536 29.5196 5 29.2652 5 29V7.99999ZM19 5.99999V3.99999H13V5.99999H19ZM7 28H25V7.99999H7V28ZM13 24C12.7348 24 12.4804 23.8946 12.2929 23.7071C12.1054 23.5196 12 23.2652 12 23V13C12 12.7348 12.1054 12.4804 12.2929 12.2929C12.4804 12.1053 12.7348 12 13 12C13.2652 12 13.5196 12.1053 13.7071 12.2929C13.8946 12.4804 14 12.7348 14 13V23C14 23.2652 13.8946 23.5196 13.7071 23.7071C13.5196 23.8946 13.2652 24 13 24ZM19 24C18.7348 24 18.4804 23.8946 18.2929 23.7071C18.1054 23.5196 18 23.2652 18 23V13C18 12.7348 18.1054 12.4804 18.2929 12.2929C18.4804 12.1053 18.7348 12 19 12C19.2652 12 19.5196 12.1053 19.7071 12.2929C19.8946 12.4804 20 12.7348 20 13V23C20 23.2652 19.8946 23.5196 19.7071 23.7071C19.5196 23.8946 19.2652 24 19 24Z"   
    fill="white"
    />
</svg>